<?xml version="1.0" encoding="UTF-8"?>
<svg version="1.1" xmlns="http://www.w3.org/2000/svg" width="24" height="24">
<path d="M0 0 C0.61875 0.33 1.2375 0.66 1.875 1 C4.90263216 2.42476807 5.76490445 2.07836518 9 1 C11 2.75 11 2.75 13 5 C13 6.32 13 7.64 13 9 C4.3448805 12.62164575 -2.2414785 12.36866211 -11 9 C-10.50168276 5.31245243 -9.89932357 3.39509338 -7 1 C-5.68 1.66 -4.36 2.32 -3 3 C-2.01 2.01 -1.02 1.02 0 0 Z " fill="#000000" transform="translate(11,12)"/>
<path d="M0 0 C1.91015625 0.23046875 1.91015625 0.23046875 3.91015625 2.23046875 C4.90015625 1.57046875 5.89015625 0.91046875 6.91015625 0.23046875 C7.57015625 0.89046875 8.23015625 1.55046875 8.91015625 2.23046875 C8.53515625 4.35546875 8.53515625 4.35546875 7.91015625 6.23046875 C6.92015625 6.23046875 5.93015625 6.23046875 4.91015625 6.23046875 C4.31203125 7.05546875 3.71390625 7.88046875 3.09765625 8.73046875 C0.91015625 11.23046875 0.91015625 11.23046875 -2.15234375 11.73046875 C-5.08984375 11.23046875 -5.08984375 11.23046875 -7.02734375 10.16796875 C-8.72165548 7.07834148 -7.8293606 4.55829457 -7.08984375 1.23046875 C-5.19495423 -0.66442077 -2.51845229 0.05027763 0 0 Z M-2.08984375 2.23046875 C-1.08984375 4.23046875 -1.08984375 4.23046875 -1.08984375 4.23046875 Z " fill="#000000" transform="translate(14.08984375,-0.23046875)"/>
<path d="M0 0 C1.32 0.66 2.64 1.32 4 2 C3.34 3.32 2.68 4.64 2 6 C1.34 6 0.68 6 0 6 C-1.125 2.25 -1.125 2.25 0 0 Z " fill="#000000" transform="translate(2,6)"/>
</svg>
